<?xml version="1.0" standalone="no"?>
<!DOCTYPE svg PUBLIC "-//W3C//DTD SVG 1.1//EN" "http://www.w3.org/Graphics/SVG/1.1/DTD/svg11.dtd" >
<svg xmlns="http://www.w3.org/2000/svg" xmlns:xlink="http://www.w3.org/1999/xlink" version="1.1">
<metadata></metadata>
<defs>
<font id="neue_pixel_groteskregular" horiz-adv-x="1155" >
<font-face units-per-em="2048" ascent="1536" descent="-512" />
<missing-glyph horiz-adv-x="385" />
<glyph horiz-adv-x="0" />
<glyph horiz-adv-x="682" />
<glyph unicode=" "  horiz-adv-x="385" />
<glyph unicode="&#x09;" horiz-adv-x="385" />
<glyph unicode="&#xa0;" horiz-adv-x="385" />
<glyph unicode="!" horiz-adv-x="385" d="M96 0v193h193v-193h-193zM96 385v1077h193v-1077h-193z" />
<glyph unicode="&#x22;" horiz-adv-x="770" d="M96 1077v385h193v-385h-193zM481 1077v385h193v-385h-193z" />
<glyph unicode="#" horiz-adv-x="1351" d="M96 385v193h193v305h-193v192h193v387h192v-387h385v387h193v-387h194v-192h-194v-305h194v-193h-194v-385h-193v385h-385v-385h-192v385h-193zM481 578h385v305h-385v-305z" />
<glyph unicode="$" horiz-adv-x="1349" d="M96 193v192h193v-192h-193zM96 825v445h193v-443zM289 0v193h291v440h-291v192h291v445h-291v192h291v193h192v-193h289v-192h-289v-445h289v-192h-289v-440h289v-193h-289v-193h-192v193h-291zM1061 193v440h192v-440h-192zM1061 1077v193h192v-193h-192z" />
<glyph unicode="%" horiz-adv-x="1925" d="M96 885v385h193v-385h-193zM289 0v193h192v-193h-192zM289 692v193h192v-193h-192zM289 1270v192h192v-192h-192zM481 193v192h193v-192h-193zM481 885v385h193v-385h-193zM674 385v193h192v-193h-192zM866 578v307h193v-307h-193zM1059 885v192h192v-192h-192zM1251 193 v385h193v-385h-193zM1253 1077v193h193v-193h-193zM1444 0v193h192v-193h-192zM1444 578v192h192v-192h-192zM1446 1270v192h192v-192h-192zM1636 193v385h193v-385h-193z" />
<glyph unicode="&#x26;" horiz-adv-x="1540" d="M96 193v577h193v-577h-193zM289 0v193h770v-193h-770zM289 770v500h192v-500h-192zM481 578v192h385v-192h-385zM481 1270v192h385v-192h-385zM866 385v193h193v-193h-193zM866 770v500h193v-500h-193zM1059 193v192h192v-192h-192zM1251 0v193h193v-193h-193zM1251 385 v193h193v-193h-193z" />
<glyph unicode="'" horiz-adv-x="385" d="M96 1077v385h193v-385h-193z" />
<glyph unicode="(" horiz-adv-x="675" d="M96 193v1077h195v-1077h-195zM291 0v193h192v-193h-192zM291 1270v192h192v-192h-192zM483 0h193v-193h-193v193zM483 1462v193h193v-193h-193z" />
<glyph unicode=")" horiz-adv-x="675" d="M0 0h193v-193h-193v193zM0 1462v193h193v-193h-193zM193 0v193h192v-193h-192zM193 1270v192h192v-192h-192zM385 193v1077h195v-1077h-195z" />
<glyph unicode="*" horiz-adv-x="770" d="M96 692v193h193v-193h-193zM96 1077v193h193v192h192v-192h193v-193h-193v-192h-192v192h-193zM481 692v193h193v-193h-193z" />
<glyph unicode="+" d="M96 633v192h385v385h193v-385h385v-192h-385v-385h-193v385h-385z" />
<glyph unicode="," horiz-adv-x="577" d="M96 0h193v-193h-193v193zM289 0v193h192v-193h-192z" />
<glyph unicode="-" horiz-adv-x="729" d="M96 633v192h537v-192h-537z" />
<glyph unicode="." horiz-adv-x="385" d="M96 0v193h193v-193h-193z" />
<glyph unicode="/" horiz-adv-x="770" d="M96 0v633h193v-633h-193zM289 633v192h192v-192h-192zM481 825v637h193v-637h-193z" />
<glyph unicode="0" d="M96 193v1067h193v-1067h-193zM289 0v193h577v-193h-577zM289 1260v192h577v-192h-577zM866 193v1067h193v-1067h-193z" />
<glyph unicode="1" horiz-adv-x="681" d="M96 1040v174h318v238h174v-1452h-174v1040h-318z" />
<glyph unicode="2" d="M96 0v385h193v-192h770v-193h-963zM96 1067v193h193v-193h-193zM289 385v193h192v-193h-192zM289 1260v192h577v-192h193v-297h-193v297h-577zM481 578v192h193v-192h-193zM674 770v193h192v-193h-192z" />
<glyph unicode="3" d="M96 193v192h193v-192h-193zM96 1067v193h193v-193h-193zM289 0v193h577v-193h-577zM289 1260v192h577v-192h-577zM481 684v193h385v-193h-385zM866 193v491h193v-491h-193zM866 877v383h193v-383h-193z" />
<glyph unicode="4" d="M96 297v385h193v-193h385v578h-193v193h193v192h192v-963h193v-192h-193l2 -297h-192l-2 297h-578zM289 682v385h192v-385h-192z" />
<glyph unicode="5" d="M96 193v288h193v-288h-193zM96 748v679h963v-192h-770v-295h577v-192h193v-555h-193v555h-770zM289 0v193h577v-193h-577z" />
<glyph unicode="6" d="M96 193v1067h193v-375h577v-193h-577v-499h-193zM289 0v193h577v-193h-577zM289 1260v192h577v-192h-577zM866 193v499h193v-499h-193zM866 1067v193h193v-193h-193z" />
<glyph unicode="7" d="M96 1235v192h963v-385h-193v193h-770zM289 0v659h192v-659h-192zM481 659v193h193v-193h-193zM674 850v192h192v-192h-192z" />
<glyph unicode="8" d="M96 193v456h193v-456h-193zM96 842v418h193v-418h-193zM289 0v193h577v-193h-577zM289 649v193h577v-193h-577zM289 1260v192h577v-192h-577zM866 193v456h193v-456h-193zM866 842v418h193v-418h-193z" />
<glyph unicode="9" d="M96 193v192h193v-192h-193zM96 760v500h193v-500h-193zM289 0v193h577v-193h-577zM289 567v193h577v500h193v-1067h-193v374h-577zM289 1260v192h577v-192h-577z" />
<glyph unicode=":" horiz-adv-x="385" d="M96 0v193h193v-193h-193zM96 883v192h193v-192h-193z" />
<glyph unicode=";" horiz-adv-x="577" d="M96 0h193v-193h-193v193zM289 0v193h192v-193h-192zM289 883v192h192v-192h-192z" />
<glyph unicode="&#x3c;" horiz-adv-x="770" d="M96 578v192h193v-192h-193zM289 385v193h192v-193h-192zM289 770v193h192v-193h-192zM481 193v192h193v-192h-193zM481 963v192h193v-192h-193z" />
<glyph unicode="=" horiz-adv-x="964" d="M96 440v193h772v-193h-772zM96 825v193h772v-193h-772z" />
<glyph unicode="&#x3e;" horiz-adv-x="770" d="M96 193v192h193v-192h-193zM96 963v192h193v-192h-193zM289 385v193h192v-193h-192zM289 770v193h192v-193h-192zM481 578v192h193v-192h-193z" />
<glyph unicode="?" horiz-adv-x="1157" d="M96 989v279h193v192h579v-192h193v-385h-193v385h-579v-279h-193zM483 0v193h193v-193h-193zM483 385v305h193v-305h-193zM676 690v193h192v-193h-192z" />
<glyph unicode="@" horiz-adv-x="1925" d="M96 385v690h193v-690h-193zM289 193v192h192v-192h-192zM289 1075v193h192v-193h-192zM481 0v193h1155v-193h-1155zM481 578v305h193v-305h-193zM481 1268v192h963v-192h-963zM674 385v193h385v305h-385v192h577v-497h193v-193h-770zM1444 578v690h192v-690h-192z M1636 193v192h193v-192h-193z" />
<glyph unicode="A" horiz-adv-x="1347" d="M96 0v1077h193v-444h770v444h192v-1077h-192v440h-770v-440h-193zM289 1077v193h192v-193h-192zM481 1270v192h385v-192h-385zM866 1077v193h193v-193h-193z" />
<glyph unicode="B" horiz-adv-x="1349" d="M96 0v1462h965v-192h-772v-408h772v-192h-772v-477h772v-193h-965zM1061 193v477h192v-477h-192zM1061 862v408h192v-408h-192z" />
<glyph unicode="C" horiz-adv-x="1347" d="M96 193v1077h193v-1077h-193zM289 0v193h770v-193h-770zM289 1270v192h770v-192h-770zM1059 193v192h192v-192h-192zM1059 1077v193h192v-193h-192z" />
<glyph unicode="D" horiz-adv-x="1349" d="M96 0v1462h965v-192h-772v-1075v-2h772v-193h-965zM1061 193h192v1077h-192v-1077z" />
<glyph unicode="E" horiz-adv-x="1157" d="M96 193h193v446h579v192h-579v439h-193v-1077zM289 0v193h772v-193h-772zM289 1270v192h772v-192h-772z" />
<glyph unicode="F" horiz-adv-x="1159" d="M96 0v1462h967v-192h-774v-445h581v-192h-581v-633h-193z" />
<glyph unicode="G" horiz-adv-x="1347" d="M96 193h193v1077h-193v-1077zM289 0h770v193h-770v-193zM289 1270v192h770v-192h-770zM674 537h385v-344h192v536h-577v-192zM1059 1022h192v248h-192v-248z" />
<glyph unicode="H" horiz-adv-x="1349" d="M96 0v1462h193v-626h772v626h192v-1462h-192v643h-772v-643h-193z" />
<glyph unicode="I" horiz-adv-x="385" d="M96 0v1462h193v-1462h-193z" />
<glyph unicode="J" d="M96 193v385h193v-385h-193zM289 0v193h577v-193h-577zM866 193v1269h193v-1269h-193z" />
<glyph unicode="K" horiz-adv-x="1347" d="M96 0v1462h193v-770h192v-192h-192v-500h-193zM481 692v193h193v-193h-193zM674 500v192h192v-192h-192zM674 885v192h192v-192h-192zM866 307v193h193v-193h-193zM866 1077v193h193v-193h-193zM1059 0v307h192v-307h-192zM1059 1270v192h192v-192h-192z" />
<glyph unicode="L" horiz-adv-x="1157" d="M96 193v1269h193v-1269h-193zM289 0v193h772v-193h-772z" />
<glyph unicode="M" horiz-adv-x="1544" d="M96 0v1462h193v-377h194v-192h-194v-893h-193zM483 385v508h193v-508h-193zM676 193v192h192v-192h-192zM868 385v508h193v-508h-193zM1061 893v192h194v377h193v-1462h-193v893h-194z" />
<glyph unicode="N" horiz-adv-x="1347" d="M96 0v1462h193v-192h192v-193h-192v-1077h-193zM481 885v192h193v-192h-193zM674 385v500h192v-500h-192zM866 193v192h193v1077h192v-1462h-192v193h-193z" />
<glyph unicode="O" horiz-adv-x="1544" d="M96 385v692h195v-692h-195zM291 193v192h192v-192h-192zM291 1077h192v193h-192v-193zM483 0v193h578v-193h-578zM483 1270v192h578v-192h-578zM1061 193h194v192h-194v-192zM1061 1077v193h194v-193h-194zM1255 385h193v692h-193v-692z" />
<glyph unicode="P" horiz-adv-x="1349" d="M96 0v1462h965v-192h-772v-539h772v-192h-772v-539h-193zM1061 731v539h192v-539h-192z" />
<glyph unicode="Q" horiz-adv-x="1353" d="M96 193v1077h195v-1077h-195zM291 0v193h579v-193h-579zM291 1270v192h772v-192h-772zM678 385v193h192v-193h-192zM870 193v192h193v-192h-193zM1063 0v193h192v-193h-192zM1063 385v885h194v-885h-194z" />
<glyph unicode="R" horiz-adv-x="1351" d="M96 0v1462h967v-192h-772v-445h772v-192h192v-633h-192v440h-193v193h-579v-633h-195zM1063 825v445h192v-445h-192z" />
<glyph unicode="S" horiz-adv-x="1349" d="M96 193v192h193v-192h-193zM96 836v434h193v-434h-193zM289 0v193h772v-193h-772zM289 643v193h772v-193h-772zM289 1270v192h772v-192h-772zM1061 193v450h192v-450h-192zM1061 1077v193h192v-193h-192z" />
<glyph unicode="T" horiz-adv-x="1361" d="M96 1270v192h1170v-192h-490v-1270h-192v1270h-488z" />
<glyph unicode="U" horiz-adv-x="1349" d="M96 193v1269h193v-1269h-193zM289 0v193h772v-193h-772zM1061 193v1269h192v-1269h-192z" />
<glyph unicode="V" d="M96 385v1077h193v-1077h-193zM289 193v192h192v-192h-192zM481 0v193h193v-193h-193zM674 193v192h192v-192h-192zM866 385v1077h193v-1077h-193z" />
<glyph unicode="W" horiz-adv-x="1542" d="M96 0v1462h193v-893h192v-192h-192v-377h-193zM481 569v508h195v-508h-195zM676 1077v193h192v-193h-192zM868 569v508h193v-508h-193zM1061 377v192h192v893h193v-1462h-193v377h-192z" />
<glyph unicode="X" horiz-adv-x="1544" d="M96 0v193h195v-193h-195zM96 1270v192h195v-192h-195zM291 193v192h192v-192h-192zM291 1077v193h192v-193h-192zM483 385v193h193v-193h-193zM483 885v192h193v-192h-193zM676 578v307h192v-307h-192zM868 385v193h195v-193h-195zM868 885v192h195v-192h-195zM1063 193 v192h192v-192h-192zM1063 1077v193h192v-193h-192zM1255 0v193h193v-193h-193zM1255 1270v192h193v-192h-193z" />
<glyph unicode="Y" d="M96 825v637h193v-637h-193zM289 633v192h192v-192h-192zM481 0v633h193v-633h-193zM674 633v192h192v-192h-192zM866 825v637h193v-637h-193z" />
<glyph unicode="Z" horiz-adv-x="1157" d="M96 0v500h193v-307h772v-193h-965zM96 1270v192h965v2v-387h-193v193h-772zM289 500v192h192v-192h-192zM481 692v193h195v-193h-195zM676 885v192h192v-192h-192z" />
<glyph unicode="[" horiz-adv-x="481" d="M96 -193v1848h385v-193h-192v-1462h192v-193h-385z" />
<glyph unicode="\" horiz-adv-x="770" d="M96 825v637h193v-637h-193zM289 633v192h192v-192h-192zM481 0v633h193v-633h-193z" />
<glyph unicode="]" horiz-adv-x="481" d="M0 0h193v1462h-193v193h385v-1848h-385v193z" />
<glyph unicode="_" horiz-adv-x="772" d="M-96 0h964v-193h-964v193z" />
<glyph unicode="a" horiz-adv-x="1349" d="M96 193v288h193v-288h-193zM96 674v192h193v-192h-193zM289 0v193h579v-193h-579zM289 481v193h579v192h193v-673h-193v288h-579zM289 866v193h579v-193h-579zM1061 0v193h192v-193h-192z" />
<glyph unicode="b" horiz-adv-x="1271" d="M96 0v1460h193v-594h192v-192h-192v-289h192v-192h-192v-193h-193zM481 0v193h307v-193h-307zM481 866v193h307v-193h-307zM788 193v192h195v-192h-195zM788 674v192h195v-192h-195zM983 385v289h193v-289h-193z" />
<glyph unicode="c" horiz-adv-x="1157" d="M96 385v289h193v-289h-193zM289 193v192h192v-192h-192zM289 674v192h192v-192h-192zM481 0v193h387v-193h-387zM481 866v193h387v-193h-387zM868 193v192h193v-192h-193zM868 674v192h193v-192h-193z" />
<glyph unicode="d" horiz-adv-x="1271" d="M96 385v287h193v-287h-193zM289 193v192h192v-192h-192zM289 672v192h192v-192h-192zM481 0v193h310v-193h-310zM481 864v195h310v-195h-310zM791 193v192h192v287h-192v192h192v596h193v-1460h-193v193h-192z" />
<glyph unicode="e" horiz-adv-x="1159" d="M96 193v671h193v-190h581v190h193v-383h-774v-288h-193zM289 0v193h581v-193h-581zM289 864v195h581v-195h-581zM870 193v192h193v-192h-193z" />
<glyph unicode="f" horiz-adv-x="772" d="M96 866v193h195v211h192v192h193v-192h-193v-211h193v-193h-193v-866h-192v866h-195z" />
<glyph unicode="g" horiz-adv-x="1271" d="M96 0h193v-193h-193v193zM96 385v289h193v-289h-193zM289 -193h694v-192h-694v192zM289 193v192h192v-192h-192zM289 674v192h192v-192h-192zM481 0v193h310v-193h-310zM481 866v193h310v-193h-310zM791 193v192h192v289h-192v192h192v193h193v-1252h-193v386h-192z" />
<glyph unicode="h" horiz-adv-x="1069" d="M96 0v1462h193v-596h192v-192h-192v-674h-193zM481 866v193h299v-193h-299zM780 0v866h193v-866h-193z" />
<glyph unicode="i" horiz-adv-x="385" d="M96 0v1059h193v-1059h-193zM96 1270v192h193v-192h-193z" />
<glyph unicode="j" horiz-adv-x="385" d="M-96 -193h192v-192h-192v192zM96 -193v1252h193v-1252h-193zM96 1270v192h193v-192h-193z" />
<glyph unicode="k" horiz-adv-x="1157" d="M96 0v1462h195v-884h192v-193h-192v-385h-195zM483 578v192h193v-192h-193zM676 193v385h192v-385h193v-193h-193v193h-192zM676 770v193h192v-193h-192zM868 963v192h193v-192h-193z" />
<glyph unicode="l" horiz-adv-x="387" d="M96 0v1462h195v-1462h-195z" />
<glyph unicode="m" horiz-adv-x="1677" d="M96 0v1059h193v-193h192v193h260v-193h-260v-192h-192v-674h-193zM741 0v866h387v193h258v-193h-258v-192h-194v-674h-193zM1386 0v866h195v-866h-195z" />
<glyph unicode="n" horiz-adv-x="1067" d="M96 0v1059h193v-193h192v193h297v-193h-297v-192h-192v-674h-193zM778 0v866h193v-866h-193z" />
<glyph unicode="o" horiz-adv-x="1312" d="M96 385v289h193v-289h-193zM289 193v192h192v-192h-192zM289 674v192h192v-192h-192zM481 0v193h350v-193h-350zM481 866v193h350v-193h-350zM831 193v192h193v-192h-193zM831 674v192h193v-192h-193zM1024 385v289h193v-289h-193z" />
<glyph unicode="p" horiz-adv-x="1269" d="M96 -385v1444h193v-193h192v-192h-192v-289h192v-192h-192v-578h-193zM481 0v193h307v-193h-307zM481 866v193h307v-193h-307zM788 193v192h193v-192h-193zM788 674v192h193v-192h-193zM981 385v289h193v-289h-193z" />
<glyph unicode="q" horiz-adv-x="1271" d="M96 385v289h193v-289h-193zM289 193v192h192v-192h-192zM289 674v192h192v-192h-192zM481 0v193h307v-193h-307zM481 866v193h307v-193h-307zM788 193v192h195v289h-195v192h195v193h193v-1444h-193v578h-195z" />
<glyph unicode="r" horiz-adv-x="772" d="M96 0v1059h195v-193h192v193h193v-193h-193v-192h-192v-674h-195z" />
<glyph unicode="s" horiz-adv-x="1058" d="M96 193v192h193v-192h-193zM96 193v192h193v-192h-193zM96 674v192h193v-192h-193zM289 0v193h481v-193h-481zM289 481v193h481v-193h-481zM289 866v193h481v-193h-481zM770 193v288h193v-288h-193z" />
<glyph unicode="t" horiz-adv-x="770" d="M96 866v193h193v403h192v-403h193v-193h-193v-673h193v-193h-193v193h-192v673h-193z" />
<glyph unicode="u" horiz-adv-x="1067" d="M96 193v866h193v-866h-193zM289 0v193h295v192h194v674h193v-1059h-193v193h-194v-193h-295z" />
<glyph unicode="v" d="M96 385v674h193v-674h-193zM289 193v192h192v-192h-192zM481 0v193h193v-193h-193zM674 193v192h192v-192h-192zM866 385v674h193v-674h-193z" />
<glyph unicode="w" horiz-adv-x="1540" d="M96 193v866h193v-866h-193zM289 0v193h192v-193h-192zM481 193v671h193v-671h-193zM674 864v195h192v-195h-192zM866 193v671h193v-671h-193zM1059 0v193h192v-193h-192zM1059 0v193h192v-193h-192zM1251 193v866h193v-866h-193z" />
<glyph unicode="x" horiz-adv-x="1157" d="M96 0v193h193v-193h-193zM96 866v193h193v-193h-193zM289 193v192h192v-192h-192zM289 674v192h192v-192h-192zM481 385v289h195v-289h-195zM676 193v192h192v-192h-192zM676 674v192h192v-192h-192zM868 0v193h193v-193h-193zM868 866v193h193v-193h-193z" />
<glyph unicode="y" d="M96 385v674h193v-674h-193zM289 -193h192v-192h-192v192zM289 193v192h192v-192h-192zM481 -193v386h193v-386h-193zM674 193v192h192v-192h-192zM866 385v674h193v-674h-193z" />
<glyph unicode="z" horiz-adv-x="1157" d="M96 0v481h193v-288h772v-193h-965zM96 866v193h965v-385h-193v192h-772zM289 481v193h579v-193h-579z" />
<glyph unicode="{" horiz-adv-x="673" d="M96 633v192h193v-192h-193zM289 0v633h192v-633h-192zM289 825v637h192v-637h-192zM481 0h193v-193h-193v193zM481 1462v193h193v-193h-193z" />
<glyph unicode="|" horiz-adv-x="579" d="M193 -193v1846h194v-1846h-194z" />
<glyph unicode="}" horiz-adv-x="673" d="M0 0h193v-193h-193v193zM0 1462v193h193v-193h-193zM193 0v633h192v-633h-192zM193 825v637h192v-637h-192zM385 633v192h193v-192h-193z" />
<glyph unicode="~" horiz-adv-x="1540" d="M96 440v193h193v-193h-193zM289 633v192h192v-192h-192zM481 825v193h193v-193h-193zM674 633v192h192v-192h-192zM866 440v193h193v-193h-193zM1059 633v192h192v-192h-192zM1251 825v193h193v-193h-193z" />
<glyph unicode="&#xa3;" horiz-adv-x="1306" d="M96 0v193h193v192h194v-192h727v-193h-1114zM289 578v192h194v193h193v-193h342v-192h-342v-193h-193v193h-194zM289 963v307h194v192h535v-192h-535v-307h-194zM1018 963v307h192v-307h-192z" />
<glyph unicode="&#xa5;" d="M96 440v193h193v192h-193v637h193v-637h192v-192h193v192h192v-192h193v-193h-385v-440h-193v440h-385zM866 825v637h193v-637h-193z" />
<glyph unicode="&#xa9;" horiz-adv-x="1540" d="M96 385v692h193v-692h-193zM289 193v192h192v-192h-192zM289 1077v193h192v-193h-192zM481 0v193h578v-193h-578zM481 385v692h578v-192h-383v-307h383v-193h-578zM481 1270v192h578v-192h-578zM1059 193v192h192v-192h-192zM1059 1077v193h192v-193h-192zM1251 385v692 h193v-692h-193z" />
<glyph unicode="&#xad;" horiz-adv-x="729" d="M96 633v192h537v-192h-537z" />
<glyph unicode="&#xae;" horiz-adv-x="1540" d="M96 385v692h193v-692h-193zM289 193v192h192v692h385v-192h-192v-193h192v193h193v-500h192v-192h-192v-193h-578v193h-192zM289 1077v193h192v-193h-192zM481 1270v192h578v-192h-578zM674 193h192v311h-192v-311zM1059 1077v193h192v-193h-192zM1251 385v692h193v-692 h-193z" />
<glyph unicode="&#x2000;" horiz-adv-x="827" />
<glyph unicode="&#x2001;" horiz-adv-x="1655" />
<glyph unicode="&#x2002;" horiz-adv-x="827" />
<glyph unicode="&#x2003;" horiz-adv-x="1655" />
<glyph unicode="&#x2004;" horiz-adv-x="551" />
<glyph unicode="&#x2005;" horiz-adv-x="413" />
<glyph unicode="&#x2006;" horiz-adv-x="275" />
<glyph unicode="&#x2007;" horiz-adv-x="275" />
<glyph unicode="&#x2008;" horiz-adv-x="206" />
<glyph unicode="&#x2009;" horiz-adv-x="331" />
<glyph unicode="&#x200a;" horiz-adv-x="91" />
<glyph unicode="&#x2010;" horiz-adv-x="729" d="M96 633v192h537v-192h-537z" />
<glyph unicode="&#x2011;" horiz-adv-x="729" d="M96 633v192h537v-192h-537z" />
<glyph unicode="&#x2012;" horiz-adv-x="729" d="M96 633v192h537v-192h-537z" />
<glyph unicode="&#x2013;" horiz-adv-x="964" d="M0 633v192h965v-192h-965z" />
<glyph unicode="&#x2014;" horiz-adv-x="1544" d="M0 633v192h1544v-192h-1544z" />
<glyph unicode="&#x2018;" horiz-adv-x="382" d="M96 1077v385h193v-385h-193z" />
<glyph unicode="&#x2019;" horiz-adv-x="385" d="M96 1077v385h193v-385h-193z" />
<glyph unicode="&#x201c;" horiz-adv-x="772" d="M96 1077v385h193v-385h-193zM483 1077v385h193v-385h-193z" />
<glyph unicode="&#x201d;" horiz-adv-x="772" d="M96 1077v385h193v-385h-193zM483 1077v385h193v-385h-193z" />
<glyph unicode="&#x2022;" horiz-adv-x="772" d="M96 633v192h195v193h192v-193h193v-192h-193v-193h-192v193h-195z" />
<glyph unicode="&#x2026;" horiz-adv-x="1159" d="M96 0v193h195v-193h-195zM483 0v193h193v-193h-193zM868 0v193h195v-193h-195z" />
<glyph unicode="&#x202f;" horiz-adv-x="331" />
<glyph unicode="&#x205f;" horiz-adv-x="413" />
<glyph unicode="&#x20ac;" horiz-adv-x="1349" d="M96 500v192h193v115h-193v192h193v271h192v192h772v-192h-579v-193h-193v-78h580v-192h-580v-115h387v-192h-387v-115h193v-192h579v-193h-772v193h-192v307h-193z" />
<glyph unicode="&#x2122;" horiz-adv-x="1943" d="M96 1270v192h584v-192h-195v-385h-194v385h-195zM874 885v577h973v-577h-194v385h-195v-385h-194v385h-195v-385h-195z" />
<glyph unicode="&#x25fc;" horiz-adv-x="1054" d="M0 0v1055h1055v-1055h-1055z" />
</font>
</defs>
</svg>
